# xmcd CD database file
#
# Track frame offsets:
#	150
#	14399
#	28523
#	40485
#	52097
#	63513
#	77292
#	91146
#	104981
#	116426
#	130448
#	142384
#	155489
#	167774
#	180272
#	194374
#	205792
#	216712
#	229062
#	241089
#
# Disc length: 3411 seconds
#
# Revision: 2
# Processed by: cddbd v1.5.1PL0 Copyright (c) Steve Scherf et al.
# Submitted via: CDex 1.51
#
DISCID=210d5114
DTITLE=Ella Fitzgerald - The Legendary
DYEAR=2002
DGENRE=Jazz
TTITLE0=Louisville, K-Y
TTITLE1=Taking A Chance On Love
TTITLE2=I'm The Loneliest Gal In Town
TTITLE3=Three Little Words
TTITLE4=Hello Ma! I Done It Again
TTITLE5=The One I Love (Belongs To Somebody Else)
TTITLE6=Keep Cool, Fool
TTITLE7=My Man
TTITLE8=I Can't Believe That You're In Love With Me
TTITLE9=I Must Have That Man
TTITLE10=When My Sugar Walks Down The Street
TTITLE11=I Got It Bad (And That Ain't Good)
TTITLE12=Melinda the Mousie
TTITLE13=Can't Help Lovin' Dat Man
TTITLE14=Into Each Life Some Rain Must Fall
TTITLE15=It's Only A Paper Moon
TTITLE16=Flying Home
TTITLE17=Stone Cold Dead In De Market
TTITLE18=Patootie Pie
TTITLE19=That's Rich
EXTD=YEAR: 2002
EXTT0=
EXTT1=
EXTT2=
EXTT3=
EXTT4=
EXTT5=
EXTT6=
EXTT7=
EXTT8=
EXTT9=
EXTT10=
EXTT11=
EXTT12=
EXTT13=
EXTT14=
EXTT15=
EXTT16=
EXTT17=
EXTT18=
EXTT19=
PLAYORDER=
